<?xml version="1.0" encoding="UTF-8" standalone="no"?>
<svg
   xmlns:dc="http://purl.org/dc/elements/1.1/"
   xmlns:cc="http://creativecommons.org/ns#"
   xmlns:rdf="http://www.w3.org/1999/02/22-rdf-syntax-ns#"
   xmlns:svg="http://www.w3.org/2000/svg"
   xmlns="http://www.w3.org/2000/svg"
   xmlns:sodipodi="http://sodipodi.sourceforge.net/DTD/sodipodi-0.dtd"
   xmlns:inkscape="http://www.inkscape.org/namespaces/inkscape"
   id="codesvg"
   width="30"
   height="30"
   fill="#707070"
   class="bi bi-code-slash"
   viewBox="0 0 16 16"
   version="1.1"
   sodipodi:docname="code.svg"
   inkscape:version="1.0.2 (e86c870879, 2021-01-15)">
  <metadata
     id="metadata11">
    <rdf:RDF>
      <cc:Work
         rdf:about="">
        <dc:format>image/svg+xml</dc:format>
        <dc:type
           rdf:resource="http://purl.org/dc/dcmitype/StillImage" />
      </cc:Work>
    </rdf:RDF>
  </metadata>
  <defs
     id="defs9" />
  <sodipodi:namedview
     pagecolor="#ffffff"
     bordercolor="#666666"
     borderopacity="1"
     objecttolerance="10"
     gridtolerance="10"
     guidetolerance="10"
     inkscape:pageopacity="0"
     inkscape:pageshadow="2"
     inkscape:window-width="1807"
     inkscape:window-height="984"
     id="namedview7"
     showgrid="false"
     inkscape:zoom="24.033333"
     inkscape:cx="15"
     inkscape:cy="15"
     inkscape:window-x="0"
     inkscape:window-y="0"
     inkscape:window-maximized="1"
     inkscape:current-layer="codesvg" />
  <path
     d="M8 15A7 7 0 1 1 8 1a7 7 0 0 1 0 14zm0 1A8 8 0 1 0 8 0a8 8 0 0 0 0 16z"
     id="path2" />
  <path
     d="M 9.9648918,2.9107776 A 0.40719501,0.40719501 0 1 0 9.1864797,2.6713915 L 5.9295257,13.256492 a 0.40719497,0.40719497 0 0 0 0.778412,0.239386 z M 5.3856144,4.9455597 a 0.40711925,0.40711925 0 0 1 0,0.5764808 L 2.8232058,8.0836348 5.3856144,10.645229 A 0.40763355,0.40763355 0 0 1 4.8091336,11.22171 L 1.9592987,8.3718753 a 0.40711925,0.40711925 0 0 1 0,-0.5764809 L 4.8091336,4.9455597 a 0.40711925,0.40711925 0 0 1 0.5764808,0 z m 5.1231886,0 a 0.40711925,0.40711925 0 0 0 0,0.5764808 l 2.562409,2.5615943 -2.562409,2.5615942 a 0.40763362,0.40763362 0 0 0 0.576481,0.576481 l 2.849835,-2.8498347 a 0.40711925,0.40711925 0 0 0 0,-0.5764809 L 11.085284,4.9455597 a 0.40711925,0.40711925 0 0 0 -0.576481,0 z"
     id="path4"
     style="stroke-width:0.96;stroke-miterlimit:4;stroke-dasharray:none" />
</svg>
